<?xml version="1.0" encoding="utf-8"?>
<!-- Generator: Adobe Illustrator 26.5.2, SVG Export Plug-In . SVG Version: 6.00 Build 0)  -->
<svg version="1.1" id="Capa_1" xmlns="http://www.w3.org/2000/svg" xmlns:xlink="http://www.w3.org/1999/xlink" x="0px" y="0px"
	 viewBox="0 0 346.87 340.03" style="enable-background:new 0 0 346.87 340.03;" xml:space="preserve">
<style type="text/css">
	.st0{fill:#FFFFFF;}
</style>
<g>
	<path class="st0" d="M0,26.94c16.49,0,32.99-0.02,49.48,0c7.57,0.01,12.06,3.53,13.7,10.88C66.78,54,70.32,70.2,73.9,86.39
		c0.26,1.19,0.59,2.36,0.91,3.62c11.54,0,22.9,0,34.58,0c0.72-29.25,11.97-53.29,35.03-71.36C160.74,5.85,179.5-0.07,200.15,0
		c44.43,0.15,88.72,37.22,88.42,89.99c1.17,0.06,2.36,0.19,3.55,0.19c13.44,0.01,26.89-0.01,40.33,0.01
		c11.02,0.02,16.4,6.91,13.74,17.52c-9.68,38.73-19.36,77.46-29.03,116.19c-2.14,8.55-6.27,11.77-15.17,11.77
		c-69.47,0-138.95,0-208.42,0c-9.13,0-12.92-3.07-14.84-11.94C66.47,167.3,54.2,110.87,41.93,54.44c-0.21-0.97-0.53-1.91-0.86-3.1
		c-13.76,0-27.41,0-41.07,0C0,43.21,0,35.08,0,26.94z M199.34,24.48c-36.29,0-64.76,28.92-65.32,64.13
		c-0.56,35.32,27.82,64.83,63.7,65.73c35.15,0.88,65.07-27.91,66.03-63.53C264.71,54.78,236.18,25.39,199.34,24.48z"/>
	<polygon class="st0" points="179.56,103.27 165.46,89.17 148.5,106.13 162.6,120.23 179.56,137.19 196.52,120.23 249.29,67.47 
		232.33,50.51 	"/>
	<path class="st0" d="M253.61,255.07c-23.26-0.17-42.32,18.82-42.54,42.39c-0.21,23.14,19.08,42.5,42.41,42.56
		c23.29,0.06,42.57-19.14,42.59-42.4C296.09,274.38,276.99,255.24,253.61,255.07z M253.57,321.54c-13.25,0-24-10.75-24-24
		c0-13.25,10.75-24,24-24s24,10.75,24,24C277.57,310.8,266.82,321.54,253.57,321.54z"/>
	<path class="st0" d="M123.43,255.65c-22.75-0.62-42,18.16-42.59,41.58c-0.58,22.82,18.17,41.97,41.6,42.51
		c22.85,0.52,41.88-17.93,42.46-41.18C165.5,275.31,147.12,256.3,123.43,255.65z M122.87,321.54c-13.25,0-24-10.75-24-24
		c0-13.25,10.75-24,24-24s24,10.75,24,24C146.87,310.8,136.13,321.54,122.87,321.54z"/>
</g>
</svg>
