<?xml version="1.0" encoding="utf-8"?>
<!-- Generator: Adobe Illustrator 26.5.2, SVG Export Plug-In . SVG Version: 6.00 Build 0)  -->
<svg version="1.1" id="Capa_1" xmlns="http://www.w3.org/2000/svg" xmlns:xlink="http://www.w3.org/1999/xlink" x="0px" y="0px"
	 viewBox="0 0 400 150" style="enable-background:new 0 0 400 150;" xml:space="preserve">
<style type="text/css">
	.st0{fill:#FFFFFF;}
</style>
<g>
	<path class="st0" d="M103.93,63.39c-0.68,0.19-1.35,0.42-2.03,0.57c-10.2,2.31-18.1,7.87-23.5,16.83c-2.9,4.81-4.4,10.05-3.5,15.71
		c1.14,7.2,6.06,12.15,13.23,13.5c7.33,1.38,13.6-1.05,19.26-5.51c6.19-4.87,10.48-11.24,14.39-17.97
		c4.33-7.45,9.76-14.02,16.92-18.97c6.28-4.34,13.23-6.75,20.92-6.29c8.45,0.51,15.05,4.05,18.32,12.33
		c0.57,1.44,0.79,3.03,1.22,4.75c-2.85,0-5.4,0.05-7.95-0.06c-0.37-0.02-0.85-0.73-1.03-1.21c-2.08-5.72-5.89-9.69-11.82-11.27
		c-6.9-1.84-13.18-0.11-18.87,3.95c-7.31,5.21-11.72,12.53-15,20.7c-3.32,8.26-8.12,15.51-15.25,20.99
		c-7.6,5.85-16.08,8.87-25.79,7.27C71.37,116.74,65,106.89,65.91,95.69c1.27-15.71,14.89-29.8,30.03-32.65
		c2.56-0.48,5.22-0.36,7.84-0.52C103.83,62.81,103.88,63.1,103.93,63.39z"/>
	<path class="st0" d="M113.47,69.91c1.07-1.74,1.99-2.99,2.63-4.36c1.16-2.47,0.58-4.08-1.85-5.31c-2.46-1.25-4.98-2.36-7.45-3.58
		c-4.22-2.09-6.67-5.35-6.44-10.22c0.16-3.46,2.28-5.87,4.82-7.85c5.19-4.03,11.19-5.92,17.7-6.51c7.95-0.72,15.41,0.89,22.55,4.3
		c1.09,0.52,2.14,1.11,3.19,1.75c-6.5-1.62-13.09-2.3-19.75-1.94c-7.02,0.38-13.72,1.97-19.6,6.08c-0.83,0.58-1.6,1.28-2.3,2.01
		c-2.18,2.25-2.12,5.17,0.26,7.25c1.38,1.2,2.97,2.17,4.48,3.21c1.51,1.04,3.09,2,4.58,3.08c3.08,2.25,3.49,5.96,0.91,8.79
		C116.18,67.73,114.92,68.64,113.47,69.91z"/>
	<path class="st0" d="M230.49,98.1c-3.53,0-7.07,0.01-10.6-0.01c-1.82-0.01-2.37-0.71-1.78-2.4c1.27-3.61,2.59-7.21,3.95-10.79
		c0.6-1.58,1.78-2.42,3.54-2.42c7.07,0.02,14.13,0.01,21.2,0.03c1.59,0,2.14,0.6,1.63,2.11c-1.33,3.91-2.77,7.78-4.25,11.64
		c-0.51,1.33-1.66,1.85-3.08,1.85C237.56,98.09,234.03,98.1,230.49,98.1z M243.46,85.78c-5.6,0-10.91-0.01-16.22,0.02
		c-0.29,0-0.76,0.2-0.85,0.42c-1.06,2.83-2.07,5.69-3.14,8.7c5.53,0,10.85,0.01,16.16-0.03c0.32,0,0.81-0.3,0.92-0.58
		C241.38,91.56,242.37,88.78,243.46,85.78z"/>
	<path class="st0" d="M316.06,97.99c-3.43,0-6.87,0.01-10.3,0c-1.9-0.01-2.33-0.57-1.7-2.32c1.27-3.56,2.57-7.1,3.85-10.65
		c0.6-1.66,1.87-2.43,3.54-2.43c6.97-0.04,13.94-0.03,20.91-0.01c1.62,0.01,2.15,0.73,1.61,2.29c-1.28,3.71-2.62,7.41-4.01,11.08
		c-0.55,1.44-1.76,2.06-3.29,2.05C323.13,97.98,319.6,97.99,316.06,97.99z M329.38,85.69c-5.74,0-11.11-0.01-16.48,0.02
		c-0.29,0-0.74,0.25-0.84,0.49c-1.1,2.83-2.15,5.68-3.23,8.57c0.39,0.17,0.57,0.31,0.75,0.31c5.17,0.02,10.34,0.05,15.52,0
		c0.39,0,0.98-0.43,1.12-0.8C327.29,91.54,328.27,88.76,329.38,85.69z"/>
	<path class="st0" d="M99.8,87.6c2.19-3.98,4.88-7,8.23-9.39c2.24-1.6,4.63-2.98,6.97-4.44c4.3-2.68,8.02-5.98,10.85-10.22
		c3.37-5.06,2.88-9.52-1.48-13.73c-0.88-0.85-1.83-1.62-2.74-2.42c1.62-0.13,4.91,1.33,6.83,3c4.51,3.9,5.01,9.64,2.08,15.2
		c-3.36,6.37-8.61,10.67-15.23,13.35C109.9,81.14,104.74,83.77,99.8,87.6z"/>
	<path class="st0" d="M294.96,97.71c0.58-1.64,1.07-3.19,1.66-4.7c0.41-1.05,0.06-1.43-0.98-1.42c-4.15,0.01-8.29-0.04-12.44,0.06
		c-0.57,0.01-1.34,0.66-1.63,1.21c-0.61,1.17-1.05,2.44-1.39,3.72c-0.31,1.18-0.96,1.54-2.1,1.43c-0.84-0.08-1.7-0.02-2.74-0.02
		c1.09-3.02,2.04-5.8,3.15-8.52c0.16-0.4,1.05-0.72,1.61-0.72c5.27-0.05,10.55-0.04,15.82-0.03c2.65,0,2.74-0.08,3.16-3.05
		c-6.33,0-12.64,0-18.97,0c0.29-2.85,0.55-3.09,3.1-3.09c6.04,0,12.08,0,18.12,0c2.71,0,3.33,0.81,2.27,3.24
		c-0.82,1.88-0.95,4.14-2.83,5.49c-0.15,0.11-0.18,0.44-0.21,0.68c-0.13,1.06-0.07,2.18-0.39,3.18
		C299.21,98.25,298.52,98.56,294.96,97.71z"/>
	<path class="st0" d="M252.02,85.69c0.32-0.9,0.44-1.63,0.81-2.2c0.27-0.42,0.86-0.89,1.31-0.89c6.71-0.06,13.42-0.05,20.12-0.02
		c1.82,0.01,2.32,0.73,1.76,2.4c-0.48,1.45-1,2.89-1.56,4.32c-0.6,1.52-1.66,2.33-3.39,2.31c-5.02-0.05-10.04,0.04-15.05-0.05
		c-1.43-0.03-2.17,0.46-2.55,1.79c-0.32,1.12-0.84,2.19-1.16,3.31c-0.31,1.08-0.92,1.45-2.01,1.34c-0.85-0.09-1.72-0.02-2.81-0.02
		c1.09-3,2.08-5.83,3.19-8.6c0.15-0.36,0.97-0.64,1.48-0.65c5.32-0.05,10.65-0.03,15.98-0.03c2.48,0,2.71-0.21,3.13-3.02
		C264.9,85.69,258.55,85.69,252.02,85.69z"/>
	<path class="st0" d="M145.7,43.83c0.28,2.01,0.43,3.89,0.83,5.72c0.65,2.99,2.35,4.33,5.41,4.38c2.71,0.05,5.44-0.16,8.14,0.05
		c3.97,0.31,7.93,0.82,11.21,3.46c1.5,1.21,2.3,2.68,1.95,4.84c-1.44-2.47-3.66-3.07-6.18-3.06c-4.95,0.01-9.9,0.06-14.85-0.01
		c-4.56-0.06-8.01-2.85-8.72-7.11C143,49.09,144.11,46.4,145.7,43.83z"/>
	<path class="st0" d="M184.25,88.59c-0.45,1.22-0.81,2.21-1.21,3.27c-4.67,0-9.31,0-13.99,0c-0.33,0.93-0.63,1.77-0.99,2.8
		c6.45,0,12.72,0,19.22,0c-0.38,1.12-0.64,2.08-1.05,2.98c-0.11,0.25-0.65,0.44-0.99,0.45c-7.68,0.02-15.36,0.02-23.24,0.02
		c1.1-3.08,2.13-6.04,3.24-8.98c0.1-0.26,0.63-0.51,0.96-0.51C172.13,88.58,178.07,88.59,184.25,88.59z"/>
	<path class="st0" d="M137.82,82.62c0.09-0.04,0.17-0.1,0.26-0.11c4.4-0.25,4.41-0.25,5.85,3.93c0.85,2.46,1.69,4.93,2.61,7.62
		c1.51-1.41,2.95-2.74,4.38-4.09c2.46-2.31,4.91-4.65,7.4-6.93c0.33-0.31,0.87-0.52,1.32-0.54c1.27-0.07,2.56-0.03,4.12,0.29
		c-0.81,0.72-1.64,1.41-2.43,2.15c-4,3.74-7.98,7.51-11.98,11.25c-1.36,1.27-2.96,2.16-4.84,1.8c-0.82-0.16-1.93-0.84-2.19-1.55
		c-1.62-4.46-3.05-9-4.53-13.52C137.76,82.84,137.81,82.73,137.82,82.62z"/>
	<path class="st0" d="M214.43,94.84c0.05,0.36,0.07,0.42,0.06,0.46c-0.79,2.79-0.79,2.79-3.64,2.79c-5.74,0-11.48,0-17.22,0
		c-0.51,0-1.03,0.02-1.53-0.07c-1.45-0.25-1.91-0.86-1.43-2.25c1.48-4.24,3.04-8.46,4.63-12.66c0.11-0.3,0.66-0.58,1.03-0.6
		c1.17-0.08,2.35-0.03,3.76-0.03c-1.49,4.14-2.93,8.14-4.44,12.36C201.98,94.84,208.19,94.84,214.43,94.84z"/>
	<path class="st0" d="M168.51,44.16c0.57-1.56,1.2-3.1,1.71-4.68c0.6-1.85,0.41-2.21-1.48-2.69c-1.23-0.31-2.5-0.48-3.77-0.59
		c-4.27-0.35-8.55-0.63-12.83-0.96c-0.55-0.04-1.08-0.22-1.94-0.39c2.7-1.61,5.31-2.62,8.1-3.22c3.68-0.79,7.36-1.22,11.05-0.13
		c0.92,0.27,1.83,0.64,2.64,1.14c3.15,1.94,3.74,5.32,1.27,8.05c-1.3,1.43-2.95,2.55-4.44,3.81
		C168.72,44.39,168.62,44.27,168.51,44.16z"/>
	<path class="st0" d="M171.37,101.26c-5.96,8.44-19.13,15.88-29.99,13.79c0.56-0.4,0.86-0.78,1.23-0.85
		c8.46-1.7,15.49-5.82,21.2-12.27c0.32-0.36,0.92-0.62,1.41-0.63C167.21,101.22,169.2,101.26,171.37,101.26z"/>
	<path class="st0" d="M191.69,82.48c-0.3,0.96-0.46,1.77-0.82,2.49c-0.18,0.35-0.73,0.73-1.11,0.74
		c-7.67,0.04-15.33,0.03-23.23,0.03c0.35-1.01,0.59-1.93,1.01-2.77c0.14-0.28,0.73-0.47,1.11-0.47
		C176.26,82.47,183.87,82.48,191.69,82.48z"/>
</g>
</svg>
